<svg width="512" height="512" viewBox="0 0 512 512" fill="none" xmlns="http://www.w3.org/2000/svg">
<g clip-path="url(#clip0_103_3666)">
<path d="M0 0H512V512H0V0Z" fill="#EE1C25"/>
<path d="M204.8 104.96L74.24 189.44L128 51.2L174.08 189.44L51.2 104.96H204.8Z" fill="#FFFF00"/>
<path d="M236.577 33.0495L283.097 55.8345L234.403 64.2014L265.969 27.3272L262.929 76.9068L236.577 33.0495Z" fill="#FFFF00"/>
<path d="M295.87 78.2083L329.881 117.326L281.736 106.078L325.192 84.3784L303.084 128.898L295.87 78.2083Z" fill="#FFFF00"/>
<path d="M306.574 152.531L321.655 202.153L282.279 172.21L330.833 170.146L292.454 201.774L306.574 152.531Z" fill="#FFFF00"/>
<path d="M266.01 205.632L260.774 257.178L236.032 214.4L281.574 231.219L234.01 245.568L266.01 205.632Z" fill="#FFFF00"/>
</g>
<defs>
<clipPath id="clip0_103_3666">
<rect width="512" height="512" fill="white"/>
</clipPath>
</defs>
</svg>
