<svg width="9" height="12" viewBox="0 0 9 12" fill="none" xmlns="http://www.w3.org/2000/svg">
<path d="M4.5 10.5C6.72222 7.80769 8.5 5.5 8.5 3.96154C8.5 3.04348 8.07857 2.16303 7.32843 1.51386C6.57828 0.864697 5.56087 0.5 4.5 0.5C3.43913 0.5 2.42172 0.864697 1.67157 1.51386C0.921427 2.16303 0.5 3.04348 0.5 3.96154C0.5 5.5 2.27778 7.80769 4.5 10.5Z" stroke="#000"/>
<path d="M6.27785 3.96131C6.27785 4.36934 6.09054 4.76065 5.75715 5.04917C5.42375 5.33769 4.97156 5.49977 4.50007 5.49977C4.02857 5.49977 3.57639 5.33769 3.24299 5.04917C2.90959 4.76065 2.72229 4.36934 2.72229 3.96131C2.72229 3.55329 2.90959 3.16197 3.24299 2.87346C3.57639 2.58494 4.02857 2.42285 4.50007 2.42285C4.97156 2.42285 5.42375 2.58494 5.75715 2.87346C6.09054 3.16197 6.27785 3.55329 6.27785 3.96131Z" stroke="#000"/>
</svg>
